<svg width="565" height="200" viewBox="0 0 565 200" fill="none" xmlns="http://www.w3.org/2000/svg">
<g clip-path="url(#clip0_3258_6263)">
<rect width="565" height="200" rx="4" fill="#39AAEB"/>
<g opacity="0.2">
<g clip-path="url(#clip1_3258_6263)">
<mask id="path-3-inside-1_3258_6263" fill="white">
<path fill-rule="evenodd" clip-rule="evenodd" d="M432.856 75.0171L432.856 149.145L507.145 149.145L581.111 75.1821L581.111 1.89954L581.111 -72.228L506.983 -72.228L506.983 0.889411L432.856 0.889433L395.711 0.889558L358.728 37.8708L358.728 75.0171L432.856 75.0171Z"/>
</mask>
<path d="M432.856 149.145L431.584 149.145L431.584 150.416L432.856 150.416L432.856 149.145ZM432.856 75.0171L434.127 75.0171L434.127 73.7459L432.856 73.7459L432.856 75.0171ZM507.145 149.145L507.145 150.416L507.672 150.416L508.044 150.043L507.145 149.145ZM581.111 75.1821L582.01 76.081L582.382 75.7086L582.382 75.1821L581.111 75.1821ZM581.111 1.89954L582.382 1.89954L581.111 1.89954ZM581.111 -72.228L582.382 -72.228L582.382 -73.4992L581.111 -73.4992L581.111 -72.228ZM506.983 -72.228L506.983 -73.4992L505.712 -73.4992L505.712 -72.228L506.983 -72.228ZM506.983 0.889411L506.983 2.16062L508.255 2.16062L508.255 0.889411L506.983 0.889411ZM432.856 0.889433L432.856 -0.381777L432.856 0.889433ZM395.711 0.889558L395.711 -0.381652L395.184 -0.381652L394.812 -0.00933735L395.711 0.889558ZM358.728 37.8708L357.829 36.9719L357.457 37.3442L357.457 37.8708L358.728 37.8708ZM358.728 75.0171L357.457 75.0171L357.457 76.2883L358.728 76.2883L358.728 75.0171ZM434.127 149.145L434.127 75.0171L431.585 75.0171L431.584 149.145L434.127 149.145ZM507.145 147.873L432.856 147.873L432.856 150.416L507.145 150.416L507.145 147.873ZM580.212 74.2831L506.247 148.246L508.044 150.043L582.01 76.081L580.212 74.2831ZM579.84 1.89954L579.84 75.1821L582.382 75.1821L582.382 1.89954L579.84 1.89954ZM579.84 -72.228L579.84 1.89954L582.382 1.89954L582.382 -72.228L579.84 -72.228ZM506.983 -70.9568L581.111 -70.9568L581.111 -73.4992L506.983 -73.4992L506.983 -70.9568ZM508.255 0.889411L508.254 -72.228L505.712 -72.228L505.712 0.889411L508.255 0.889411ZM432.856 2.16064L506.983 2.16062L506.983 -0.381799L432.856 -0.381777L432.856 2.16064ZM395.711 2.16077L432.856 2.16064L432.856 -0.381777L395.711 -0.381652L395.711 2.16077ZM359.627 38.7697L396.61 1.78845L394.812 -0.00933735L357.829 36.9719L359.627 38.7697ZM359.999 75.0171L359.999 37.8708L357.457 37.8708L357.457 75.0171L359.999 75.0171ZM432.856 73.7459L358.728 73.7459L358.728 76.2883L432.856 76.2883L432.856 73.7459Z" fill="white" mask="url(#path-3-inside-1_3258_6263)"/>
<path d="M210.978 223.097L210.529 222.647L210.342 222.834L210.342 223.097L210.978 223.097ZM247.79 186.287L248.239 186.736L248.425 186.55L248.425 186.287L247.79 186.287ZM210.978 223.1L211.427 223.55L211.614 223.364L211.614 223.1L210.978 223.1ZM173.995 260.082L173.995 260.717L174.259 260.717L174.445 260.531L173.995 260.082ZM136.85 260.082L136.215 260.082L136.215 260.717L136.85 260.717L136.85 260.082ZM136.85 260.081L137.486 260.081L137.486 259.446L136.85 259.446L136.85 260.081ZM99.5344 260.081L98.8988 260.081L98.8988 260.717L99.5344 260.717L99.5344 260.081ZM99.5343 222.767L98.8987 222.767L99.5343 222.767ZM99.5343 185.62L99.0849 185.171L98.8987 185.357L98.8987 185.62L99.5343 185.62ZM136.346 148.811L136.795 149.26L136.981 149.074L136.981 148.811L136.346 148.811ZM136.346 75.0136L136.346 74.378L135.71 74.378L135.71 75.0136L136.346 75.0136ZM210.473 75.0135L210.473 75.6492L211.109 75.6492L211.109 75.0135L210.473 75.0135ZM210.473 75.0131L210.637 74.399L209.837 74.1858L209.837 75.0131L210.473 75.0131ZM210.473 75.0132L210.309 75.6273L211.109 75.8405L211.109 75.0132L210.473 75.0132ZM210.473 37.8669L210.024 37.4174L209.838 37.6036L209.838 37.8669L210.473 37.8669ZM247.456 0.88563L247.456 0.25004L247.193 0.25004L247.006 0.436198L247.456 0.88563ZM284.6 0.885566L284.6 0.249976L284.6 0.885566ZM358.728 0.885559L359.364 0.885559L359.364 0.249969L358.728 0.249969L358.728 0.885559ZM358.728 38.0319L359.177 38.4813L359.364 38.2952L359.364 38.0319L358.728 38.0319ZM321.745 75.0131L321.745 75.6487L322.009 75.6487L322.195 75.4626L321.745 75.0131ZM284.6 75.0131L284.6 74.3775L283.965 74.3775L283.965 75.0131L284.6 75.0131ZM284.6 149.141L285.236 149.141L285.236 149.141L284.6 149.141ZM284.6 149.477L285.05 149.926L285.236 149.74L285.236 149.477L284.6 149.477ZM247.79 186.286L247.34 185.837L247.154 186.023L247.154 186.286L247.79 186.286ZM211.427 223.546L248.239 186.736L247.34 185.837L210.529 222.647L211.427 223.546ZM211.614 223.1L211.614 223.097L210.342 223.097L210.342 223.1L211.614 223.1ZM174.445 260.531L211.427 223.55L210.529 222.651L173.546 259.632L174.445 260.531ZM136.85 260.717L173.995 260.717L173.995 259.446L136.85 259.446L136.85 260.717ZM136.215 260.081L136.215 260.082L137.486 260.082L137.486 260.081L136.215 260.081ZM99.5344 260.717L136.85 260.717L136.85 259.446L99.5344 259.446L99.5344 260.717ZM98.8987 222.767L98.8988 260.081L100.17 260.081L100.17 222.767L98.8987 222.767ZM98.8987 185.62L98.8987 222.767L100.17 222.767L100.17 185.62L98.8987 185.62ZM135.896 148.361L99.0849 185.171L99.9838 186.07L136.795 149.26L135.896 148.361ZM135.71 75.0136L135.71 148.811L136.981 148.811L136.981 75.0136L135.71 75.0136ZM210.473 74.3779L136.346 74.378L136.346 75.6492L210.473 75.6492L210.473 74.3779ZM209.837 75.0131L209.837 75.0135L211.109 75.0135L211.109 75.0131L209.837 75.0131ZM210.637 74.3991L210.637 74.399L210.309 75.6273L210.309 75.6273L210.637 74.3991ZM209.838 37.8669L209.838 75.0132L211.109 75.0132L211.109 37.8669L209.838 37.8669ZM247.006 0.436198L210.024 37.4174L210.923 38.3163L247.905 1.33509L247.006 0.436198ZM284.6 0.249976L247.456 0.25004L247.456 1.52125L284.6 1.52119L284.6 0.249976ZM358.728 0.249969L284.6 0.249976L284.6 1.52119L358.728 1.52118L358.728 0.249969ZM359.364 38.0319L359.364 0.885559L358.092 0.885559L358.092 38.0319L359.364 38.0319ZM322.195 75.4626L359.177 38.4813L358.279 37.5824L321.296 74.5637L322.195 75.4626ZM284.6 75.6487L321.745 75.6487L321.745 74.3775L284.6 74.3775L284.6 75.6487ZM285.236 149.141L285.236 75.0131L283.965 75.0131L283.965 149.141L285.236 149.141ZM285.236 149.477L285.236 149.141L283.965 149.141L283.965 149.477L285.236 149.477ZM248.239 186.736L285.05 149.926L284.151 149.028L247.34 185.837L248.239 186.736ZM248.425 186.287L248.425 186.286L247.154 186.286L247.154 186.287L248.425 186.287Z" fill="white"/>
<path d="M247.618 445.655L247.618 446.29L247.881 446.29L248.067 446.104L247.618 445.655ZM210.473 445.655L210.473 446.29L210.473 445.655ZM284.432 408.842L284.432 408.206L284.169 408.206L283.982 408.393L284.432 408.842ZM284.934 408.842L284.934 409.478L285.197 409.478L285.384 409.291L284.934 408.842ZM321.917 371.861L322.366 372.31L322.552 372.124L322.552 371.861L321.917 371.861ZM321.917 371.356L321.467 370.906L321.281 371.092L321.281 371.356L321.917 371.356ZM358.728 334.546L359.177 334.995L359.364 334.809L359.364 334.546L358.728 334.546ZM358.728 297.4L359.364 297.4L359.364 297.389L359.363 297.378L358.728 297.4ZM358.728 297.4L358.728 296.764L358.07 296.764L358.093 297.422L358.728 297.4ZM432.855 297.4L432.855 298.035L433.491 298.035L433.491 297.4L432.855 297.4ZM432.855 223.272L433.491 223.272L432.855 223.272ZM432.855 149.145L433.491 149.145L433.491 148.509L432.855 148.509L432.855 149.145ZM395.711 149.145L395.711 148.509L395.447 148.509L395.261 148.695L395.711 149.145ZM358.728 186.126L358.279 185.676L358.092 185.863L358.092 186.126L358.728 186.126ZM358.728 186.631L359.177 187.08L359.364 186.894L359.364 186.631L358.728 186.631ZM322.085 223.273L322.085 223.908L322.348 223.908L322.534 223.722L322.085 223.273ZM284.6 223.273L284.6 222.637L283.965 222.637L283.965 223.273L284.6 223.273ZM284.6 297.4L284.6 298.035L285.236 298.035L285.236 297.4L284.6 297.4ZM247.456 297.4L247.456 296.764L247.192 296.764L247.006 296.95L247.456 297.4ZM210.473 334.381L210.023 333.931L209.837 334.118L209.837 334.381L210.473 334.381ZM210.473 334.888L210.922 335.338L211.108 335.152L211.108 334.888L210.473 334.888ZM174.165 371.194L173.716 370.745L173.53 370.931L173.53 371.194L174.165 371.194ZM174.165 371.527L174.165 372.163L174.801 372.163L174.801 371.527L174.165 371.527ZM173.328 371.527L173.328 370.892L173.065 370.892L172.879 371.078L173.328 371.527ZM136.345 408.508L135.896 408.059L135.71 408.245L135.71 408.508L136.345 408.508ZM136.345 445.655L135.71 445.655L135.71 446.29L136.345 446.29L136.345 445.655ZM247.618 445.019L210.473 445.019L210.473 446.29L247.618 446.29L247.618 445.019ZM283.982 408.393L247.168 445.205L248.067 446.104L284.881 409.291L283.982 408.393ZM284.934 408.206L284.432 408.206L284.432 409.478L284.934 409.478L284.934 408.206ZM321.467 371.411L284.485 408.393L285.384 409.291L322.366 372.31L321.467 371.411ZM321.281 371.356L321.281 371.861L322.552 371.861L322.552 371.356L321.281 371.356ZM358.278 334.097L321.467 370.906L322.366 371.805L359.177 334.995L358.278 334.097ZM358.092 297.4L358.092 334.546L359.364 334.546L359.364 297.4L358.092 297.4ZM358.093 297.422L358.093 297.422L359.363 297.378L359.363 297.378L358.093 297.422ZM432.855 296.764L358.728 296.764L358.728 298.035L432.855 298.035L432.855 296.764ZM432.22 223.272L432.22 297.4L433.491 297.4L433.491 223.272L432.22 223.272ZM432.22 149.145L432.22 223.272L433.491 223.272L433.491 149.145L432.22 149.145ZM395.711 149.78L432.855 149.78L432.855 148.509L395.711 148.509L395.711 149.78ZM359.177 186.575L396.16 149.594L395.261 148.695L358.279 185.676L359.177 186.575ZM359.364 186.631L359.364 186.126L358.092 186.126L358.092 186.631L359.364 186.631ZM358.279 186.182L321.635 222.823L322.534 223.722L359.177 187.08L358.279 186.182ZM284.6 223.908L322.085 223.908L322.085 222.637L284.6 222.637L284.6 223.908ZM285.236 297.4L285.236 223.273L283.965 223.273L283.965 297.4L285.236 297.4ZM247.456 298.035L284.6 298.035L284.6 296.764L247.456 296.764L247.456 298.035ZM210.922 334.83L247.905 297.849L247.006 296.95L210.023 333.931L210.922 334.83ZM211.108 334.888L211.108 334.381L209.837 334.381L209.837 334.888L211.108 334.888ZM174.615 371.644L210.922 335.338L210.023 334.439L173.716 370.745L174.615 371.644ZM174.801 371.527L174.801 371.194L173.53 371.194L173.53 371.527L174.801 371.527ZM173.328 372.163L174.165 372.163L174.165 370.892L173.328 370.892L173.328 372.163ZM136.795 408.958L173.777 371.977L172.879 371.078L135.896 408.059L136.795 408.958ZM136.981 445.655L136.981 408.508L135.71 408.508L135.71 445.655L136.981 445.655ZM210.473 445.019L136.345 445.019L136.345 446.29L210.473 446.29L210.473 445.019Z" fill="white"/>
<path d="M62.2176 149.145L62.2176 148.509L61.1002 148.509L61.6713 149.469L62.2176 149.145ZM62.2177 149.145L62.2177 149.78L63.3351 149.78L62.764 148.82L62.2177 149.145ZM99.3625 149.145L99.3625 149.78L99.6257 149.78L99.8119 149.594L99.3625 149.145ZM136.345 112.163L136.795 112.613L136.981 112.427L136.981 112.163L136.345 112.163ZM136.345 75.017L136.981 75.017L136.981 74.3814L136.345 74.3814L136.345 75.017ZM136.345 75.017L135.709 75.017L135.709 75.6526L136.345 75.6526L136.345 75.017ZM136.345 1.89954L136.345 1.26393L135.709 1.26393L135.709 1.89954L136.345 1.89954ZM136.345 1.89954L136.345 2.53514L136.981 2.53514L136.981 1.89954L136.345 1.89954ZM136.345 -72.228L136.981 -72.228L136.981 -72.8636L136.345 -72.8636L136.345 -72.228ZM99.2004 -72.228L99.2004 -72.8636L98.9371 -72.8636L98.751 -72.6775L99.2004 -72.228ZM62.2177 -35.2468L61.7682 -35.6962L61.5821 -35.5101L61.5821 -35.2468L62.2177 -35.2468ZM62.2177 -34.9147L62.2177 -34.2791L62.8533 -34.2791L62.8533 -34.9147L62.2177 -34.9147ZM61.8838 -34.9147L61.8838 -35.5503L61.6205 -35.5503L61.4343 -35.3641L61.8838 -34.9147ZM26.0781 0.889551L26.0781 1.52516L26.3414 1.52516L26.5275 1.339L26.0781 0.889551ZM25.0727 0.889551L25.0727 0.253946L24.8095 0.253947L24.6233 0.440104L25.0727 0.889551ZM-11.91 37.8708L-12.3594 37.4213L-12.5456 37.6075L-12.5456 37.8708L-11.91 37.8708ZM-11.9099 75.0171L-11.2743 75.0171L-11.9099 75.0171ZM-11.9099 149.145L-12.5455 149.145L-12.5455 149.78L-11.9099 149.78L-11.9099 149.145ZM62.2177 75.0171L62.2177 75.6527L62.8533 75.6527L62.8533 75.0171L62.2177 75.0171ZM62.2176 75.0171L61.582 75.0171L61.582 75.6527L62.2176 75.6527L62.2176 75.0171ZM61.6713 149.469L61.6714 149.47L62.764 148.82L62.764 148.82L61.6713 149.469ZM62.2176 149.78L99.3625 149.78L99.3625 148.509L62.2176 148.509L62.2176 149.78ZM99.8119 149.594L136.795 112.613L135.896 111.714L98.913 148.695L99.8119 149.594ZM136.981 112.163L136.981 75.017L135.71 75.017L135.71 112.163L136.981 112.163ZM136.345 74.3814L136.345 74.3814L136.345 75.6526L136.345 75.6526L136.345 74.3814ZM135.709 1.89954L135.709 75.017L136.981 75.017L136.981 1.89954L135.709 1.89954ZM136.345 1.26393L136.345 1.26393L136.345 2.53514L136.345 2.53514L136.345 1.26393ZM135.71 -72.228L135.71 1.89954L136.981 1.89954L136.981 -72.228L135.71 -72.228ZM99.2004 -71.5924L136.345 -71.5924L136.345 -72.8636L99.2004 -72.8636L99.2004 -71.5924ZM62.6671 -34.7973L99.6498 -71.7786L98.751 -72.6775L61.7682 -35.6962L62.6671 -34.7973ZM62.8533 -34.9147L62.8533 -35.2468L61.5821 -35.2468L61.5821 -34.9147L62.8533 -34.9147ZM61.8838 -34.2791L62.2177 -34.2791L62.2177 -35.5503L61.8838 -35.5503L61.8838 -34.2791ZM26.5275 1.339L62.3332 -34.4652L61.4343 -35.3641L25.6287 0.440104L26.5275 1.339ZM25.0727 1.52516L26.0781 1.52516L26.0781 0.253946L25.0727 0.253946L25.0727 1.52516ZM-11.4606 38.3202L25.5222 1.339L24.6233 0.440104L-12.3594 37.4213L-11.4606 38.3202ZM-11.2743 75.0171L-11.2744 37.8708L-12.5456 37.8708L-12.5455 75.0171L-11.2743 75.0171ZM-11.2743 149.145L-11.2743 75.0171L-12.5455 75.0171L-12.5455 149.145L-11.2743 149.145ZM62.2177 148.509L-11.9099 148.509L-11.9099 149.78L62.2177 149.78L62.2177 148.509ZM61.582 39.2129L61.5821 75.0171L62.8533 75.0171L62.8532 39.2129L61.582 39.2129ZM62.8532 75.0171L62.8532 39.2129L61.582 39.2129L61.582 75.0171L62.8532 75.0171ZM62.2177 74.3815L62.2176 74.3815L62.2176 75.6527L62.2177 75.6527L62.2177 74.3815Z" fill="white"/>
</g>
<rect x="569.034" y="429" width="573.952" height="1001" transform="rotate(180 569.034 429)" stroke="white" stroke-width="1.27121"/>
</g>
</g>
<defs>
<clipPath id="clip0_3258_6263">
<rect width="565" height="200" rx="4" fill="white"/>
</clipPath>
<clipPath id="clip1_3258_6263">
<rect x="569.034" y="429" width="573.952" height="1001" transform="rotate(180 569.034 429)" fill="white"/>
</clipPath>
</defs>
</svg>
