<svg width="565" height="200" viewBox="0 0 565 200" fill="none" xmlns="http://www.w3.org/2000/svg">
<g clip-path="url(#clip0_3258_6176)">
<rect width="565" height="200" rx="4" fill="#F68529"/>
<g opacity="0.2">
<g clip-path="url(#clip1_3258_6176)">
<mask id="path-3-inside-1_3258_6176" fill="white">
<path fill-rule="evenodd" clip-rule="evenodd" d="M506.983 295.38L506.983 221.253L506.983 147.867L581.111 147.867L581.111 221.995L581.111 258.399L544.128 295.38L506.983 295.38Z"/>
</mask>
<path d="M506.983 221.253L505.712 221.253L506.983 221.253ZM506.983 295.38L505.712 295.38L505.712 296.652L506.983 296.652L506.983 295.38ZM506.983 147.867L506.983 146.596L505.712 146.596L505.712 147.867L506.983 147.867ZM581.111 147.867L582.382 147.867L582.382 146.596L581.111 146.596L581.111 147.867ZM581.111 221.995L582.382 221.995L581.111 221.995ZM581.111 258.399L582.01 259.298L582.382 258.926L582.382 258.399L581.111 258.399ZM544.128 295.38L544.128 296.652L544.655 296.652L545.027 296.279L544.128 295.38ZM505.712 221.253L505.712 295.38L508.254 295.38L508.254 221.253L505.712 221.253ZM508.254 221.253L508.254 147.867L505.712 147.867L505.712 221.253L508.254 221.253ZM506.983 149.138L581.111 149.138L581.111 146.596L506.983 146.596L506.983 149.138ZM579.84 147.867L579.84 221.995L582.382 221.995L582.382 147.867L579.84 147.867ZM582.382 258.399L582.382 221.995L579.84 221.995L579.84 258.399L582.382 258.399ZM545.027 296.279L582.01 259.298L580.212 257.5L543.229 294.481L545.027 296.279ZM506.983 296.652L544.128 296.652L544.128 294.109L506.983 294.109L506.983 296.652Z" fill="white" mask="url(#path-3-inside-1_3258_6176)"/>
<mask id="path-5-inside-2_3258_6176" fill="white">
<path fill-rule="evenodd" clip-rule="evenodd" d="M432.856 72.2561L432.856 -1.87204L358.728 -1.87203L358.728 -39.0184L395.711 -75.9996L432.856 -75.9996L432.856 -75.999L506.983 -75.999L506.983 -149.117L581.111 -149.117L581.111 -74.9896L581.111 -74.9896L581.111 -1.70638L507.145 72.2561L432.856 72.2561Z"/>
</mask>
<path d="M432.856 -1.87204L434.127 -1.87204L434.127 -3.14325L432.856 -3.14325L432.856 -1.87204ZM432.856 72.2561L431.584 72.2561L431.584 73.5273L432.856 73.5273L432.856 72.2561ZM358.728 -1.87203L357.457 -1.87203L357.457 -0.600818L358.728 -0.600818L358.728 -1.87203ZM358.728 -39.0184L357.829 -39.9173L357.457 -39.5449L357.457 -39.0184L358.728 -39.0184ZM395.711 -75.9996L395.711 -77.2708L395.184 -77.2708L394.812 -76.8985L395.711 -75.9996ZM432.856 -75.9996L434.127 -75.9996L434.127 -77.2708L432.856 -77.2708L432.856 -75.9996ZM432.856 -75.999L431.585 -75.999L431.585 -74.7278L432.856 -74.7278L432.856 -75.999ZM506.983 -75.999L506.983 -74.7278L508.255 -74.7278L508.255 -75.999L506.983 -75.999ZM506.983 -149.117L506.983 -150.388L505.712 -150.388L505.712 -149.117L506.983 -149.117ZM581.111 -149.117L582.382 -149.117L582.382 -150.388L581.111 -150.388L581.111 -149.117ZM581.111 -74.9896L581.111 -73.7184L582.382 -73.7184L582.382 -74.9896L581.111 -74.9896ZM581.111 -74.9896L581.111 -76.2608L579.84 -76.2608L579.84 -74.9896L581.111 -74.9896ZM581.111 -1.70638L582.01 -0.807472L582.382 -1.17981L582.382 -1.70638L581.111 -1.70638ZM507.145 72.2561L507.145 73.5273L507.672 73.5273L508.044 73.155L507.145 72.2561ZM431.584 -1.87204L431.584 72.2561L434.127 72.2561L434.127 -1.87204L431.584 -1.87204ZM358.728 -0.600818L432.856 -0.600832L432.856 -3.14325L358.728 -3.14324L358.728 -0.600818ZM357.457 -39.0184L357.457 -1.87203L359.999 -1.87203L359.999 -39.0184L357.457 -39.0184ZM394.812 -76.8985L357.829 -39.9173L359.627 -38.1194L396.61 -75.1007L394.812 -76.8985ZM432.856 -77.2708L395.711 -77.2708L395.711 -74.7284L432.856 -74.7284L432.856 -77.2708ZM434.127 -75.999L434.127 -75.9996L431.585 -75.9996L431.585 -75.999L434.127 -75.999ZM506.983 -77.2702L432.856 -77.2702L432.856 -74.7278L506.983 -74.7278L506.983 -77.2702ZM508.255 -75.999L508.254 -149.117L505.712 -149.117L505.712 -75.999L508.255 -75.999ZM506.983 -147.846L581.111 -147.846L581.111 -150.388L506.983 -150.388L506.983 -147.846ZM579.84 -149.117L579.84 -74.9896L582.382 -74.9896L582.382 -149.117L579.84 -149.117ZM581.111 -76.2608L581.111 -76.2608L581.111 -73.7184L581.111 -73.7184L581.111 -76.2608ZM582.382 -1.70638L582.382 -74.9896L579.84 -74.9896L579.84 -1.70638L582.382 -1.70638ZM508.044 73.155L582.01 -0.807472L580.212 -2.60528L506.246 71.3572L508.044 73.155ZM432.856 73.5273L507.145 73.5273L507.145 70.9849L432.856 70.9849L432.856 73.5273Z" fill="white" mask="url(#path-5-inside-2_3258_6176)"/>
<mask id="path-7-inside-3_3258_6176" fill="white">
<path fill-rule="evenodd" clip-rule="evenodd" d="M62.2178 294.642L62.2178 368.769L-11.9098 368.769L-11.9098 294.642L62.2178 294.642ZM62.2178 146.387L62.2178 220.514L62.2178 294.641L-11.9098 294.641L-11.9098 220.514L-11.9098 220.514L-11.9098 146.387L62.2178 146.387Z"/>
</mask>
<path d="M62.2178 368.769L62.2178 370.041L63.489 370.041L63.489 368.769L62.2178 368.769ZM62.2178 294.642L63.489 294.642L63.489 293.371L62.2178 293.371L62.2178 294.642ZM-11.9098 368.769L-13.181 368.769L-13.181 370.041L-11.9098 370.041L-11.9098 368.769ZM-11.9098 294.642L-11.9098 293.371L-13.181 293.371L-13.181 294.642L-11.9098 294.642ZM62.2178 220.514L63.489 220.514L62.2178 220.514ZM62.2178 146.387L63.489 146.387L63.489 145.116L62.2178 145.116L62.2178 146.387ZM62.2178 294.641L62.2178 295.913L63.489 295.913L63.489 294.641L62.2178 294.641ZM-11.9098 294.641L-13.181 294.641L-13.181 295.913L-11.9098 295.913L-11.9098 294.641ZM-11.9098 220.514L-10.6385 220.514L-10.6385 220.495L-10.6392 220.475L-11.9098 220.514ZM-11.9098 220.514L-13.181 220.514L-13.181 220.534L-13.1804 220.554L-11.9098 220.514ZM-11.9098 146.387L-11.9098 145.116L-13.181 145.116L-13.181 146.387L-11.9098 146.387ZM63.489 368.769L63.489 294.642L60.9466 294.642L60.9466 368.769L63.489 368.769ZM-11.9098 370.041L62.2178 370.041L62.2178 367.498L-11.9098 367.498L-11.9098 370.041ZM-13.181 294.642L-13.181 368.769L-10.6385 368.769L-10.6386 294.642L-13.181 294.642ZM62.2178 293.371L-11.9098 293.371L-11.9098 295.913L62.2178 295.913L62.2178 293.371ZM63.489 220.514L63.489 146.387L60.9466 146.387L60.9466 220.514L63.489 220.514ZM60.9466 220.514L60.9466 294.641L63.489 294.641L63.489 220.514L60.9466 220.514ZM62.2178 293.37L-11.9098 293.37L-11.9098 295.913L62.2178 295.913L62.2178 293.37ZM-10.6385 294.641L-10.6385 220.514L-13.181 220.514L-13.181 294.641L-10.6385 294.641ZM-10.6392 220.475L-10.6392 220.474L-13.1804 220.554L-13.1803 220.554L-10.6392 220.475ZM-13.181 146.387L-13.181 220.514L-10.6386 220.514L-10.6386 146.387L-13.181 146.387ZM62.2178 145.116L-11.9098 145.116L-11.9098 147.658L62.2178 147.658L62.2178 145.116Z" fill="white" mask="url(#path-7-inside-3_3258_6176)"/>
<path d="M210.978 146.211L210.529 145.762L210.343 145.948L210.343 146.211L210.978 146.211ZM210.978 146.214L211.428 146.663L211.614 146.477L211.614 146.214L210.978 146.214ZM247.79 109.401L248.239 109.85L248.425 109.664L248.425 109.401L247.79 109.401ZM247.79 72.255L247.79 71.6194L247.154 71.6194L247.154 72.255L247.79 72.255ZM284.601 72.255L284.601 72.8906L285.237 72.8906L285.237 72.255L284.601 72.255ZM284.601 -1.87258L285.237 -1.87258L285.237 -2.50819L284.601 -2.50819L284.601 -1.87258ZM210.473 -1.87256L209.839 -1.90988L209.799 -1.23696L210.473 -1.23696L210.473 -1.87256ZM210.473 -1.87282L211.108 -1.8355L211.147 -2.50843L210.473 -2.50843L210.473 -1.87282ZM136.346 -1.8728L136.346 -2.5084L135.71 -2.5084L135.71 -1.8728L136.346 -1.8728ZM136.346 71.9242L136.795 72.3737L136.981 72.1875L136.981 71.9242L136.346 71.9242ZM99.5346 108.734L99.0851 108.285L98.8989 108.471L98.8989 108.734L99.5346 108.734ZM99.5346 145.88L98.899 145.88L98.899 145.88L99.5346 145.88ZM99.5348 183.195L98.8992 183.195L98.8992 183.831L99.5348 183.831L99.5348 183.195ZM173.662 183.195L173.662 183.831L174.298 183.831L174.298 183.195L173.662 183.195ZM173.662 183.195L173.662 182.559L173.027 182.559L173.027 183.195L173.662 183.195ZM173.996 183.195L173.996 183.831L174.259 183.831L174.445 183.645L173.996 183.195ZM173.662 109.068L173.027 109.068L173.027 109.703L173.662 109.703L173.662 109.068ZM173.662 109.068L173.662 109.703L174.298 109.703L174.298 109.068L173.662 109.068ZM173.662 72.2547L174.298 72.2547L174.298 71.6191L173.662 71.6191L173.662 72.2547ZM173.662 72.2547L173.662 71.6191L173.027 71.6191L173.027 72.2547L173.662 72.2547ZM284.601 -76.0008L285.237 -76.0008L285.237 -76.6364L284.601 -76.6364L284.601 -76.0008ZM284.601 -76.0004L283.965 -76.0004L283.965 -75.3647L284.601 -75.3647L284.601 -76.0004ZM247.456 -76.0008L247.456 -76.6364L247.193 -76.6364L247.007 -76.4503L247.456 -76.0008ZM210.473 -39.0196L210.024 -39.4691L209.838 -39.2829L209.838 -39.0196L210.473 -39.0196ZM210.473 -1.87328L209.838 -1.87328L209.838 -1.23767L210.473 -1.23767L210.473 -1.87328ZM284.601 -1.8733L285.236 -1.88293L285.227 -2.5089L284.601 -2.5089L284.601 -1.8733ZM284.601 -1.8728L283.965 -1.86317L283.975 -1.23719L284.601 -1.23719L284.601 -1.8728ZM321.746 -1.87281L321.746 -1.23721L322.009 -1.23721L322.195 -1.42335L321.746 -1.87281ZM358.728 -38.854L359.178 -38.4046L359.364 -38.5908L359.364 -38.854L358.728 -38.854ZM358.728 -76.0004L359.364 -76.0004L359.364 -76.636L358.728 -76.636L358.728 -76.0004ZM210.343 146.211L210.343 146.214L211.614 146.214L211.614 146.211L210.343 146.211ZM247.34 108.952L210.529 145.762L211.428 146.661L248.239 109.85L247.34 108.952ZM247.154 72.255L247.154 109.401L248.425 109.401L248.425 72.255L247.154 72.255ZM284.601 71.6194L247.79 71.6194L247.79 72.8906L284.601 72.8906L284.601 71.6194ZM283.965 -1.87258L283.965 72.255L285.237 72.255L285.237 -1.87258L283.965 -1.87258ZM210.473 -1.23696L284.601 -1.23698L284.601 -2.50819L210.473 -2.50817L210.473 -1.23696ZM209.839 -1.91014L209.839 -1.90988L211.108 -1.83524L211.108 -1.8355L209.839 -1.91014ZM136.346 -1.23719L210.473 -1.23722L210.473 -2.50843L136.346 -2.5084L136.346 -1.23719ZM136.981 71.9242L136.981 -1.8728L135.71 -1.8728L135.71 71.9242L136.981 71.9242ZM135.896 71.4748L99.0851 108.285L99.984 109.183L136.795 72.3737L135.896 71.4748ZM98.8989 108.734L98.899 145.88L100.17 145.88L100.17 108.734L98.8989 108.734ZM100.17 183.195L100.17 145.88L98.899 145.88L98.8992 183.195L100.17 183.195ZM173.662 182.559L99.5348 182.559L99.5348 183.831L173.662 183.831L173.662 182.559ZM173.027 183.195L173.027 183.195L174.298 183.195L174.298 183.195L173.027 183.195ZM173.996 182.559L173.662 182.559L173.662 183.831L173.996 183.831L173.996 182.559ZM210.529 145.764L173.546 182.746L174.445 183.645L211.428 146.663L210.529 145.764ZM173.662 109.703L173.662 109.703L173.662 108.432L173.662 108.432L173.662 109.703ZM174.298 109.068L174.298 72.2547L173.027 72.2547L173.027 109.068L174.298 109.068ZM173.662 71.6191L173.662 71.6191L173.662 72.8903L173.662 72.8903L173.662 71.6191ZM174.298 109.068L174.298 72.2547L173.027 72.2547L173.027 109.068L174.298 109.068ZM283.965 -76.0008L283.965 -76.0004L285.237 -76.0004L285.237 -76.0008L283.965 -76.0008ZM247.456 -75.3652L284.601 -75.3652L284.601 -76.6364L247.456 -76.6364L247.456 -75.3652ZM210.923 -38.5701L247.906 -75.5514L247.007 -76.4503L210.024 -39.4691L210.923 -38.5701ZM211.109 -1.87328L211.109 -39.0196L209.838 -39.0196L209.838 -1.87328L211.109 -1.87328ZM284.601 -2.5089L210.473 -2.50888L210.473 -1.23767L284.601 -1.23769L284.601 -2.5089ZM285.236 -1.88242L285.236 -1.88293L283.965 -1.86367L283.965 -1.86317L285.236 -1.88242ZM321.746 -2.50842L284.601 -2.5084L284.601 -1.23719L321.746 -1.23721L321.746 -2.50842ZM358.279 -39.3035L321.296 -2.32226L322.195 -1.42335L359.178 -38.4046L358.279 -39.3035ZM358.093 -76.0004L358.093 -38.854L359.364 -38.854L359.364 -76.0004L358.093 -76.0004ZM284.601 -75.3647L358.728 -75.3647L358.728 -76.636L284.601 -76.6359L284.601 -75.3647Z" fill="white"/>
<path d="M247.618 368.769L247.618 369.405L247.881 369.405L248.067 369.218L247.618 368.769ZM210.473 368.769L210.341 368.147L210.473 369.405L210.473 368.769ZM284.432 331.956L284.432 331.321L284.169 331.321L283.982 331.507L284.432 331.956ZM284.934 331.956L284.934 332.592L285.197 332.592L285.384 332.406L284.934 331.956ZM321.917 294.975L322.366 295.424L322.552 295.238L322.552 294.975L321.917 294.975ZM321.917 294.47L321.467 294.02L321.281 294.206L321.281 294.47L321.917 294.47ZM358.728 257.66L359.177 258.11L359.364 257.923L359.364 257.66L358.728 257.66ZM358.728 220.514L358.728 219.878L358.092 219.878L358.092 220.514L358.728 220.514ZM432.855 220.514L432.855 221.149L433.491 221.149L433.491 220.514L432.855 220.514ZM432.855 146.387L433.491 146.387L432.855 146.387ZM432.855 72.259L433.491 72.259L433.491 71.6234L432.855 71.6234L432.855 72.259ZM395.711 72.259L395.711 71.6234L395.447 71.6234L395.261 71.8096L395.711 72.259ZM358.728 109.24L358.278 108.791L358.092 108.977L358.092 109.24L358.728 109.24ZM358.728 109.745L359.177 110.195L359.364 110.008L359.364 109.745L358.728 109.745ZM322.085 146.386L322.085 147.022L322.349 147.022L322.535 146.836L322.085 146.386ZM284.6 146.386L284.6 145.751L283.965 145.751L283.965 146.386L284.6 146.386ZM284.6 220.514L284.6 221.15L285.236 221.15L285.236 220.514L284.6 220.514ZM247.456 220.514L247.456 219.878L247.192 219.878L247.006 220.064L247.456 220.514ZM210.473 257.495L210.023 257.046L209.837 257.232L209.837 257.495L210.473 257.495ZM210.473 258.002L210.922 258.451L211.108 258.265L211.108 258.002L210.473 258.002ZM174.165 294.308L173.716 293.858L173.53 294.045L173.53 294.308L174.165 294.308ZM174.165 294.641L174.165 295.277L174.801 295.277L174.801 294.641L174.165 294.641ZM173.328 294.641L173.328 294.006L173.065 294.006L172.879 294.192L173.328 294.641ZM136.345 331.623L135.896 331.173L135.71 331.359L135.71 331.623L136.345 331.623ZM136.345 368.769L135.71 368.769L135.71 369.405L136.345 369.405L136.345 368.769ZM210.473 368.769L210.604 369.391L210.473 368.133L210.473 368.769ZM247.618 368.133L210.473 368.133L210.473 369.405L247.618 369.405L247.618 368.133ZM283.982 331.507L247.168 368.32L248.067 369.218L284.881 332.406L283.982 331.507ZM284.934 331.321L284.432 331.321L284.432 332.592L284.934 332.592L284.934 331.321ZM321.467 294.525L284.485 331.507L285.384 332.406L322.366 295.424L321.467 294.525ZM321.281 294.47L321.281 294.975L322.552 294.975L322.552 294.47L321.281 294.47ZM358.278 257.211L321.467 294.02L322.366 294.919L359.177 258.11L358.278 257.211ZM358.092 220.514L358.092 257.66L359.364 257.66L359.364 220.514L358.092 220.514ZM432.855 219.878L358.728 219.878L358.728 221.15L432.855 221.149L432.855 219.878ZM432.22 146.387L432.22 220.514L433.491 220.514L433.491 146.387L432.22 146.387ZM432.22 72.259L432.22 146.387L433.491 146.387L433.491 72.259L432.22 72.259ZM395.711 72.8947L432.855 72.8947L432.855 71.6234L395.711 71.6234L395.711 72.8947ZM359.177 109.69L396.16 72.7085L395.261 71.8096L358.278 108.791L359.177 109.69ZM359.364 109.745L359.364 109.24L358.092 109.24L358.092 109.745L359.364 109.745ZM358.278 109.296L321.636 145.937L322.535 146.836L359.177 110.195L358.278 109.296ZM284.6 147.022L322.085 147.022L322.085 145.751L284.6 145.751L284.6 147.022ZM285.236 220.514L285.236 146.386L283.965 146.386L283.965 220.514L285.236 220.514ZM247.456 221.149L284.6 221.15L284.6 219.878L247.456 219.878L247.456 221.149ZM210.922 257.945L247.905 220.963L247.006 220.064L210.023 257.046L210.922 257.945ZM211.108 258.002L211.108 257.495L209.837 257.495L209.837 258.002L211.108 258.002ZM174.615 294.757L210.922 258.451L210.023 257.553L173.716 293.858L174.615 294.757ZM174.801 294.641L174.801 294.308L173.53 294.308L173.53 294.641L174.801 294.641ZM173.328 295.277L174.165 295.277L174.165 294.006L173.328 294.006L173.328 295.277ZM136.795 332.072L173.777 295.091L172.879 294.192L135.896 331.173L136.795 332.072ZM136.981 368.769L136.981 331.623L135.71 331.623L135.71 368.769L136.981 368.769ZM210.473 368.133L136.345 368.133L136.345 369.405L210.473 369.405L210.473 368.133ZM210.604 369.391L210.604 369.391L210.341 368.147L210.341 368.147L210.604 369.391Z" fill="white"/>
<path d="M62.0656 72.2586L62.7012 72.2586L62.7012 71.623L62.0656 71.623L62.0656 72.2586ZM62.0656 72.2975L61.43 72.2975L61.43 72.9331L62.0656 72.9331L62.0656 72.2975ZM99.2449 72.2975L99.2449 72.9331L99.5081 72.9331L99.6943 72.747L99.2449 72.2975ZM136.262 35.282L136.711 35.7314L136.897 35.5453L136.897 35.282L136.262 35.282ZM136.262 -1.86897L136.262 -2.50457L135.626 -2.50457L135.626 -1.86897L136.262 -1.86897ZM136.345 -1.86897L136.345 -1.23336L136.981 -1.23336L136.981 -1.86897L136.345 -1.86897ZM136.345 -74.9865L136.981 -74.9865L136.345 -74.9865ZM136.345 -149.114L136.981 -149.114L136.981 -149.75L136.345 -149.75L136.345 -149.114ZM99.2004 -149.114L99.2004 -149.75L98.9371 -149.75L98.751 -149.564L99.2004 -149.114ZM62.2177 -112.133L61.7682 -112.582L61.5821 -112.396L61.5821 -112.133L62.2177 -112.133ZM62.2177 -111.799L62.2177 -111.164L62.8533 -111.164L62.8533 -111.799L62.2177 -111.799ZM61.8838 -111.799L61.8838 -112.435L61.6205 -112.435L61.4343 -112.249L61.8838 -111.799ZM26.0795 -75.9965L26.0795 -75.3609L26.3428 -75.3609L26.5289 -75.5471L26.0795 -75.9965ZM25.0727 -75.9965L25.0727 -76.6321L24.8095 -76.6321L24.6233 -76.446L25.0727 -75.9965ZM-11.91 -39.0153L-12.3594 -39.4647L-12.5456 -39.2786L-12.5456 -39.0153L-11.91 -39.0153ZM-11.9099 -1.86897L-11.2743 -1.86897L-11.9099 -1.86897ZM-11.9099 72.2586L-12.5455 72.2586L-12.5455 72.8942L-11.9099 72.8942L-11.9099 72.2586ZM62.2177 -1.89874L62.2177 -1.26313L62.8533 -1.26313L62.8533 -1.89874L62.2177 -1.89874ZM62.2176 -1.89874L61.582 -1.89874L61.582 -1.26313L62.2176 -1.26313L62.2176 -1.89874ZM62.2176 -37.6718L62.2176 -38.3074L61.582 -38.3074L61.582 -37.6718L62.2176 -37.6718ZM62.2177 -37.6718L62.8533 -37.6718L62.8533 -38.3074L62.2177 -38.3074L62.2177 -37.6718ZM61.43 72.2586L61.43 72.2975L62.7012 72.2975L62.7012 72.2586L61.43 72.2586ZM62.0656 72.9331L99.2449 72.9331L99.2449 71.6619L62.0656 71.6619L62.0656 72.9331ZM99.6943 72.747L136.711 35.7314L135.812 34.8325L98.7954 71.8481L99.6943 72.747ZM136.897 35.282L136.897 -1.86897L135.626 -1.86897L135.626 35.282L136.897 35.282ZM136.345 -2.50457L136.262 -2.50457L136.262 -1.23336L136.345 -1.23336L136.345 -2.50457ZM135.71 -74.9865L135.71 -1.86897L136.981 -1.86897L136.981 -74.9865L135.71 -74.9865ZM135.71 -149.114L135.71 -74.9865L136.981 -74.9865L136.981 -149.114L135.71 -149.114ZM99.2004 -148.478L136.345 -148.479L136.345 -149.75L99.2004 -149.75L99.2004 -148.478ZM62.6671 -111.683L99.6498 -148.665L98.751 -149.564L61.7682 -112.582L62.6671 -111.683ZM62.8533 -111.799L62.8533 -112.133L61.5821 -112.133L61.5821 -111.799L62.8533 -111.799ZM61.8838 -111.164L62.2177 -111.164L62.2177 -112.435L61.8838 -112.435L61.8838 -111.164ZM26.5289 -75.5471L62.3332 -111.35L61.4343 -112.249L25.6301 -76.446L26.5289 -75.5471ZM25.0727 -75.3609L26.0795 -75.3609L26.0795 -76.6321L25.0727 -76.6321L25.0727 -75.3609ZM-11.4606 -38.5658L25.5222 -75.5471L24.6233 -76.446L-12.3594 -39.4647L-11.4606 -38.5658ZM-11.2743 -1.86897L-11.2744 -39.0153L-12.5456 -39.0153L-12.5455 -1.86897L-11.2743 -1.86897ZM-11.2743 72.2586L-11.2743 -1.86897L-12.5455 -1.86897L-12.5455 72.2586L-11.2743 72.2586ZM62.0656 71.623L-11.9099 71.623L-11.9099 72.8942L62.0656 72.8942L62.0656 71.623ZM62.2177 -2.53434L62.2176 -2.53434L62.2176 -1.26313L62.2177 -1.26313L62.2177 -2.53434ZM61.582 -37.6718L61.582 -1.89874L62.8532 -1.89874L62.8532 -37.6718L61.582 -37.6718ZM62.2177 -38.3074L62.2176 -38.3074L62.2176 -37.0362L62.2177 -37.0362L62.2177 -38.3074ZM62.8533 -1.89874L62.8533 -37.6718L61.5821 -37.6718L61.5821 -1.89874L62.8533 -1.89874Z" fill="white"/>
</g>
<rect x="569.034" y="870" width="573.952" height="1001" transform="rotate(180 569.034 870)" stroke="white" stroke-width="1.27121"/>
</g>
</g>
<defs>
<clipPath id="clip0_3258_6176">
<rect width="565" height="200" rx="4" fill="white"/>
</clipPath>
<clipPath id="clip1_3258_6176">
<rect x="569.034" y="870" width="573.952" height="1001" transform="rotate(180 569.034 870)" fill="white"/>
</clipPath>
</defs>
</svg>
